<mxfile host="app.diagrams.net" modified="2024-12-02T13:46:09.907Z" agent="Mozilla/5.0 (X11; Ubuntu; Linux x86_64; rv:133.0) Gecko/20100101 Firefox/133.0" etag="kZDXrFvc4tUpskMMCKFD" version="21.6.9" type="github">
  <diagram name="Page-1" id="Xf5xsUYqx_j1nzN7BH1p">
    <mxGraphModel dx="880" dy="461" grid="1" gridSize="10" guides="1" tooltips="1" connect="1" arrows="1" fold="1" page="1" pageScale="1" pageWidth="850" pageHeight="1100" math="0" shadow="0">
      <root>
        <mxCell id="0" />
        <mxCell id="1" parent="0" />
      </root>
    </mxGraphModel>
  </diagram>
</mxfile>
